<svg width="10" height="13" viewBox="0 0 10 13" fill="black" xmlns="http://www.w3.org/2000/svg">
<path d="M5 0C4.60487 0 4.28564 0.363086 4.28564 0.8125V1.3C2.65602 1.67578 1.42821 3.31602 1.42821 5.28125V5.92617C1.42821 7.07891 1.0822 8.19863 0.450439 9.09746L0.117816 9.57227C-0.011661 9.75508 -0.036217 10.0064 0.0530776 10.2172C0.142372 10.4279 0.329891 10.5625 0.535269 10.5625H9.46473C9.67011 10.5625 9.85763 10.4279 9.94692 10.2172C10.0362 10.0064 10.0117 9.75508 9.88218 9.57227L9.54956 9.1C8.9178 8.19863 8.57178 7.07891 8.57178 5.92617V5.28125C8.57178 3.31602 7.34398 1.67578 5.71436 1.3V0.8125C5.71436 0.363086 5.39513 0 5 0ZM5 2.4375C6.38183 2.4375 7.50025 3.70957 7.50025 5.28125V5.92617C7.50025 7.14238 7.81055 8.32812 8.3865 9.34375H1.6135C2.18945 8.32812 2.49975 7.14238 2.49975 5.92617V5.28125C2.49975 3.70957 3.61817 2.4375 5 2.4375ZM6.42871 11.375H5H3.57129C3.57129 11.8066 3.72085 12.2205 3.98874 12.5252C4.25662 12.8299 4.6205 13 5 13C5.3795 13 5.74338 12.8299 6.01126 12.5252C6.27915 12.2205 6.42871 11.8066 6.42871 11.375Z" fill="black"/>
</svg>
