<?xml version="1.0" standalone="no"?>
<!DOCTYPE svg PUBLIC "-//W3C//DTD SVG 20010904//EN"
 "http://www.w3.org/TR/2001/REC-SVG-20010904/DTD/svg10.dtd">
<svg version="1.0" xmlns="http://www.w3.org/2000/svg"
 width="600.000000pt" height="600.000000pt" viewBox="0 0 600.000000 600.000000"
 preserveAspectRatio="xMidYMid meet">
<g transform="translate(0.000000,600.000000) scale(0.100000,-0.100000)"
fill="#5D5D5D" stroke="#C2C2C2">
<path d="M3145 5544 c-307 -41 -520 -138 -651 -294 -37 -44 -104 -175 -104
-203 0 -28 -14 -25 -58 13 -63 56 -142 107 -227 146 -261 121 -605 71 -838
-122 -91 -74 -149 -150 -207 -269 -66 -136 -84 -222 -78 -383 6 -165 43 -284
130 -413 57 -85 158 -190 217 -225 17 -10 31 -23 31 -29 0 -28 -34 -126 -66
-190 -28 -56 -37 -89 -43 -155 -5 -52 -31 -165 -66 -290 -55 -196 -57 -207
-46 -257 15 -65 58 -124 107 -148 53 -25 131 -31 175 -12 l35 14 42 -81 c91
-172 205 -292 347 -362 77 -38 238 -78 385 -96 52 -6 96 -12 98 -13 1 -1 -18
-73 -43 -159 -57 -199 -104 -388 -149 -596 -66 -313 -136 -784 -136 -920 l0
-70 1405 0 c1231 0 1406 2 1411 15 11 29 -46 468 -97 748 -17 93 -29 169 -28
170 111 65 227 180 277 275 86 161 76 322 -39 662 -81 240 -168 391 -293 507
-85 79 -229 171 -325 207 l-66 26 80 83 c93 96 151 192 194 322 51 152 64 263
57 475 -3 102 -10 207 -14 233 -8 42 -7 47 7 42 9 -4 48 -9 86 -12 l70 -6 53
43 c56 44 103 109 123 168 18 56 6 169 -25 238 -52 113 -94 137 -318 188
l-103 23 -8 54 c-25 180 -54 260 -129 356 -92 120 -270 218 -486 268 -188 44
-486 57 -687 29z m405 -149 c187 -12 386 -63 496 -125 109 -63 186 -153 217
-255 15 -51 30 -145 22 -145 -2 0 -75 9 -162 20 -346 43 -687 57 -968 41 -175
-10 -488 -40 -596 -58 l-37 -5 5 48 c26 243 199 389 540 454 112 21 302 39
363 34 19 -2 73 -6 120 -9z m-1621 -330 c269 -64 471 -318 471 -591 -1 -354
-265 -624 -609 -624 -180 0 -316 56 -442 180 -124 124 -182 263 -181 435 1
115 13 170 64 275 74 154 228 280 398 324 72 19 219 19 299 1z m1754 -295
c356 -22 689 -70 914 -131 l111 -31 21 -48 c12 -27 21 -69 21 -95 0 -39 -5
-52 -38 -86 -34 -36 -40 -39 -64 -30 -47 18 -277 59 -448 80 -469 58 -990 64
-1455 16 -77 -8 -143 -15 -147 -15 -5 0 -8 33 -8 73 0 39 -7 101 -15 136 -11
47 -13 66 -4 71 20 13 387 51 609 63 134 8 344 6 503 -3z m47 -460 c212 -12
343 -24 518 -47 100 -13 125 -19 133 -35 23 -43 41 -252 36 -418 -6 -196 -24
-279 -93 -418 -99 -203 -293 -335 -573 -392 -195 -40 -470 -42 -664 -6 -449
85 -674 341 -694 792 l-6 132 45 63 c53 74 98 161 122 237 11 32 23 52 33 52
8 0 83 7 167 15 323 33 665 42 976 25z m-1488 -648 c31 -230 107 -399 243
-539 44 -46 74 -83 66 -83 -29 0 -137 33 -181 55 -83 42 -123 101 -200 295
-54 137 -72 169 -126 235 -25 31 -44 58 -42 59 2 1 21 8 43 15 22 7 69 28 105
46 36 18 67 33 70 34 3 1 13 -52 22 -117z m-638 7 c3 -3 -39 -167 -94 -365
-55 -197 -100 -370 -100 -383 0 -53 -53 -77 -98 -45 -27 19 -27 32 -3 103 11
31 50 162 86 291 36 129 79 278 96 331 l29 97 39 -12 c22 -6 42 -14 45 -17z
m278 -107 c64 -60 79 -86 147 -257 67 -165 102 -224 170 -288 63 -59 133 -94
249 -123 106 -27 157 -29 299 -13 89 10 104 9 168 -9 162 -48 238 -57 490 -57
209 0 254 3 351 23 61 12 137 32 170 43 83 30 217 30 298 1 141 -51 304 -168
383 -275 106 -145 217 -439 253 -674 26 -165 -57 -307 -241 -416 -86 -50 -176
-77 -279 -83 l-85 -4 46 23 45 22 -20 50 c-11 28 -21 51 -22 53 -1 2 -40 -12
-86 -32 -98 -42 -113 -45 -113 -28 0 7 40 30 89 52 49 22 91 41 93 44 7 7 -35
96 -46 96 -5 0 -38 -13 -73 -29 -101 -45 -110 -47 -106 -21 2 16 23 30 86 57
45 19 82 41 82 47 0 6 -9 30 -20 53 l-19 42 -57 -25 c-31 -14 -58 -23 -61 -20
-12 12 102 80 225 136 75 34 154 76 174 93 l38 32 -66 200 c-57 172 -110 322
-119 333 -5 6 -113 -48 -124 -62 -9 -11 -3 -38 25 -117 77 -220 94 -282 83
-296 -6 -7 -16 -13 -21 -13 -5 0 -60 -24 -121 -54 -129 -62 -206 -124 -243
-197 -44 -87 -29 -271 34 -410 33 -74 85 -124 170 -166 72 -35 214 -43 327
-18 42 9 79 15 81 12 13 -13 104 -583 104 -652 l0 -25 -1235 0 -1235 0 0 23
c0 38 38 300 70 484 73 416 172 801 315 1220 36 106 65 197 65 201 0 9 -60 45
-103 61 -25 10 -28 8 -45 -27 -11 -20 -34 -81 -52 -134 l-34 -97 -61 5 c-95 9
-233 33 -317 55 -174 47 -302 173 -406 400 l-39 85 67 243 c38 134 73 247 80
251 6 4 11 16 10 26 -7 66 9 84 30 34 7 -16 14 -30 17 -30 2 0 26 9 53 21 l49
21 -36 76 c-51 113 -50 106 -23 92 13 -7 45 -33 72 -58z"/>
<path d="M2145 4785 c-45 -12 -95 -30 -113 -39 -44 -23 -86 -84 -113 -163 -49
-147 2 -293 130 -375 50 -31 85 -35 176 -16 54 11 59 14 76 52 9 23 22 64 27
93 l9 52 -31 -6 c-17 -3 -62 -14 -101 -24 l-70 -17 -34 33 c-45 44 -53 109
-21 182 l22 51 104 29 104 29 -29 59 c-40 85 -42 86 -136 60z"/>
<path d="M2868 4074 c-64 -34 -72 -112 -16 -159 86 -72 196 23 143 125 -26 50
-74 63 -127 34z"/>
<path d="M3844 4072 c-53 -42 -59 -109 -15 -153 39 -39 89 -40 131 -1 40 36
47 77 20 120 -32 51 -96 67 -136 34z"/>
<path d="M3133 4048 c-18 -20 -23 -45 -34 -201 -24 -339 18 -466 173 -512 76
-22 214 -20 281 5 64 24 121 79 142 140 24 68 29 209 15 388 -10 133 -16 165
-32 181 -28 31 -81 28 -108 -6 -20 -25 -20 -33 -14 -207 8 -216 2 -286 -31
-324 -22 -26 -27 -27 -120 -27 -93 0 -98 1 -120 27 -33 38 -39 107 -31 323 7
175 6 182 -14 208 -28 35 -77 37 -107 5z"/>
<path d="M3196 3269 c-18 -14 -26 -30 -26 -53 0 -79 70 -111 240 -111 96 0
123 4 162 22 25 11 51 31 58 43 18 34 8 81 -23 104 -27 20 -29 20 -76 3 -62
-22 -195 -23 -244 -2 -48 20 -59 19 -91 -6z"/>
</g>
</svg>
